<svg width="791" height="173" viewBox="0 0 791 173" fill="none" xmlns="http://www.w3.org/2000/svg">
<path fill-rule="evenodd" clip-rule="evenodd" d="M772.37 39.8106C772.106 38.479 771.445 37.3694 770.477 36.4817C769.509 35.594 768.408 34.9282 767.176 34.4843C765.944 34.0405 764.667 33.8629 763.259 33.8629C760.618 33.6854 757.889 34.4843 755.029 36.2598C752.168 38.0352 749.747 41.2753 747.811 45.8914C745.83 50.5075 744.906 56.8102 744.994 64.7109C745.082 74.165 746.71 81.1335 749.923 85.7496C753.092 90.3213 757.229 92.6293 762.291 92.6293C766.296 92.6293 769.817 91.209 772.81 88.3683L772.414 39.8106H772.37ZM378.368 71.1911L408.296 5.94446H414.854L372.03 99.7754H365.824L342.629 58.852L323.968 99.7754H317.762L264.595 5.94446H293.379L330.35 71.1911L338.976 52.3717L312.657 5.94446H341.441C353.765 27.6934 366.088 49.4422 378.412 71.1911H378.368ZM441.394 54.591C441.658 48.1995 440.998 43.0064 439.325 39.0117C437.653 35.017 434.88 33.0196 430.919 33.0196C423.745 33.0196 419.652 40.2101 418.639 54.5466H441.394V54.591ZM460.539 59.4734C460.451 48.9984 457.679 41.1865 452.221 35.9934C446.763 30.8003 439.941 28.226 431.755 28.226C425.329 28.226 419.52 29.8682 414.326 33.1084C409.133 36.3485 405.127 40.7871 402.355 46.4684C399.538 52.1054 398.217 58.4081 398.305 65.3766C398.305 76.0292 401.518 84.418 407.944 90.5432C414.37 96.6684 422.072 99.731 431.095 99.731C443.947 99.731 453.849 93.8721 460.715 82.2431L456.842 79.6244C450.593 87.8801 443.859 92.0079 436.596 92.0079C431.447 92.0967 427.486 90.632 424.757 87.5694C421.984 84.5068 420.224 80.6453 419.388 75.9848C418.551 71.3243 418.331 65.8649 418.683 59.6509H460.583L460.539 59.4734ZM677.17 35.5052C686.061 30.9779 693.059 28.7142 698.208 28.7142C704.194 28.4479 709.475 30.7116 714.053 35.5052C716.297 38.3459 717.574 40.9646 717.926 43.3614C718.234 45.7583 718.41 49.6642 718.41 55.0348V99.6422H700.409V90.5876V55.0348C700.409 53.3482 700.145 52.1498 700.145 51.3508C700.013 48.3326 699.925 46.2021 699.441 45.0037C699.264 43.4946 698.208 41.8967 696.36 40.2101C694.511 38.5234 691.738 37.8576 688.085 38.2127C686.105 38.3015 682.452 39.1892 677.126 40.9202V90.5876L677.038 99.6422H658.993V90.5876V48.6877L659.345 28.4035H677.126V35.5052H677.17ZM551.514 68.0398L581.486 28.226H588L567.446 55.5231L599.268 99.6422H579.286L557.235 69.105L551.426 76.7393V99.6422H533.513V5.94446H551.426V67.9954L551.514 68.0398ZM508.513 54.6354C508.777 48.2438 508.117 43.0507 506.445 39.056C504.772 35.0613 501.999 33.064 498.038 33.064C490.864 33.064 486.771 40.2544 485.759 54.591H508.513V54.6354ZM527.659 59.5178H485.759C485.407 65.7317 485.627 71.1468 486.463 75.8516C487.299 80.5121 489.06 84.418 491.832 87.4362C494.605 90.4988 498.522 91.9636 503.672 91.8748C510.934 91.8748 517.668 87.7469 523.918 79.4912L527.791 82.11C520.881 93.7834 511.022 99.5979 498.17 99.5979C489.148 99.5979 481.445 96.5353 475.02 90.4101C468.594 84.2849 465.381 75.896 465.381 65.2435C465.293 58.275 466.657 52.0166 469.43 46.3353C472.247 40.6983 476.208 36.2154 481.401 32.9752C486.595 29.7351 492.405 28.0928 498.83 28.0928C507.017 28.0928 513.839 30.6672 519.296 35.8603C524.754 41.0534 527.527 48.8652 527.615 59.3402L527.659 59.5178ZM633.95 54.6354C634.214 48.2438 633.553 43.0507 631.881 39.056C630.208 35.0613 627.436 33.064 623.475 33.064C616.301 33.064 612.207 40.2544 611.195 54.591H633.95V54.6354ZM653.095 59.5178C653.007 49.0428 650.234 41.2309 644.777 36.0378C639.319 30.8447 632.497 28.2704 624.311 28.2704C617.885 28.2704 612.075 29.9126 606.882 33.1528C601.688 36.3929 597.683 40.8315 594.91 46.5128C592.093 52.1498 590.773 58.4525 590.861 65.421C590.861 76.0735 594.074 84.4624 600.5 90.5876C606.926 96.7128 614.628 99.7754 623.651 99.7754C636.502 99.7754 646.405 93.9165 653.271 82.2875L649.398 79.6688C643.148 87.9245 636.414 92.0523 629.152 92.0523C624.003 92.1411 620.042 90.6764 617.313 87.6138C614.54 84.5512 612.779 80.6896 611.943 76.0292C611.107 71.3687 610.887 65.9093 611.239 59.6953H653.139L653.095 59.5178ZM772.766 93.7834C768.541 98.2219 762.863 100.619 755.645 101.018C750.319 101.285 745.258 100.13 740.416 97.4674C735.619 94.8486 731.702 90.8095 728.709 85.3501C725.716 79.9351 724.22 73.588 724.22 66.3087C724.132 54.7241 727.565 45.4476 734.519 38.5678C741.473 31.688 750.275 28.226 760.838 28.226C764.667 28.226 768.629 29.0249 772.766 30.6228V5.94446H790.811L790.723 90.3213V99.3759H772.766V93.6946V93.7834Z" fill="white"/>
<path fill-rule="evenodd" clip-rule="evenodd" d="M158.153 0L210.797 91.9973L180.476 157.528L90.348 0H158.153ZM67.8049 0H0L90.1283 157.528L120.449 91.9973L67.8049 0ZM217.301 0C204.338 0 193.791 10.4901 193.791 23.4821C193.791 36.4741 204.294 46.9643 217.301 46.9643C230.308 46.9643 240.811 36.4741 240.811 23.4821C240.811 10.4901 230.308 0 217.301 0Z" fill="white"/>
<path fill-rule="evenodd" clip-rule="evenodd" d="M360.957 107.308C362.455 107.308 363.732 107.835 364.877 108.846C365.978 109.856 366.55 111.131 366.55 112.625C366.55 114.119 366.066 115.393 365.053 116.492C364.04 117.591 362.807 118.118 361.31 118.118C359.812 118.118 358.447 117.634 357.346 116.668C356.245 115.701 355.673 114.427 355.673 112.889C355.673 111.35 356.201 110.12 357.214 108.977C358.227 107.879 359.504 107.308 361.001 107.308H360.957ZM366.33 125.896V158.107H356.377V125.896H366.33ZM382.095 107V158.063H372.671V107H382.095ZM397.817 107V158.063H388.393V107H397.817ZM444.893 132.619V151.471C444.893 152.658 445.158 153.713 445.73 154.592C446.303 155.47 447.095 155.91 448.108 155.91C448.417 155.91 448.681 155.91 448.857 155.822L448.725 157.36C446.963 158.459 445.114 159.03 443.132 159.03C441.635 159.03 440.225 158.678 438.86 157.931C437.803 156.833 436.879 155.514 436.13 154.02C435.117 155.602 433.708 156.833 431.946 157.712C430.185 158.59 428.335 159.03 426.354 159.03C424.372 159.03 422.654 158.546 421.113 157.536C419.572 156.525 418.603 155.295 418.162 153.757C417.722 152.262 417.546 150.944 417.546 149.889C417.546 148 417.986 146.286 418.823 144.792C419.66 143.298 421.289 142.199 422.786 141.672L433.267 138.112C433.84 137.893 434.457 137.761 434.985 137.365C435.513 136.97 435.822 136.487 435.866 135.959C435.866 134.07 434.853 132.136 433.532 130.774C432.211 129.412 430.581 128.708 428.688 128.708C427.939 128.708 426.926 128.928 425.693 129.368C424.416 129.807 423.051 130.818 421.597 132.4C421.509 132.268 421.333 131.916 421.069 131.433C420.805 130.906 420.673 130.466 420.673 130.027C420.673 129.763 420.673 129.543 420.761 129.412C421.906 127.83 423.579 126.643 425.737 125.852C427.895 125.061 430.053 124.666 432.167 124.666C435.205 124.666 437.891 125.281 440.27 126.555C442.648 127.83 444.189 129.807 444.893 132.532V132.619ZM426.882 148.923C426.882 150.373 427.146 151.691 427.631 152.834C428.159 154.02 429.04 154.679 430.273 154.899C431.33 154.899 432.343 154.592 433.312 154.02C434.28 153.449 434.985 152.658 435.425 151.603L435.822 149.714V140.441C433.444 140.441 431.374 141.232 429.524 142.858C427.719 144.484 426.794 146.462 426.794 148.835L426.882 148.923ZM408.342 107.352C409.839 107.352 411.116 107.879 412.261 108.89C413.362 109.9 413.935 111.175 413.935 112.669C413.935 114.163 413.45 115.437 412.438 116.536C411.425 117.634 410.192 118.162 408.694 118.162C407.197 118.162 405.832 117.678 404.731 116.712C403.63 115.745 403.057 114.471 403.057 112.932C403.057 111.394 403.586 110.164 404.599 109.021C405.612 107.923 406.889 107.352 408.386 107.352H408.342ZM413.715 125.94V158.151H403.762V125.94H413.715ZM505.357 107.22V158.151H496.242V153.713C495.141 155.47 493.687 156.877 491.838 157.843C489.988 158.854 487.963 159.337 485.893 159.337C483.206 159.337 480.784 158.546 478.582 156.921C476.689 155.251 475.236 153.053 474.179 150.373C473.122 147.692 472.593 144.88 472.593 141.936C472.593 137.761 473.606 134.07 475.676 130.818C477.702 127.61 479.683 126.072 481.841 125.413C483.867 124.841 485.1 124.841 485.408 124.841C485.717 124.841 486.025 124.841 486.201 124.841C488.095 124.841 489.812 125.193 491.353 125.94C492.895 126.643 494.392 127.742 495.845 129.192V107.22H505.313H505.357ZM482.502 140.925C482.502 144.221 482.766 147.077 483.25 149.538C483.779 151.999 484.748 153.625 486.157 154.46C487.566 155.295 488.755 155.383 489.46 155.383C491.221 155.383 492.631 154.46 493.731 152.614C494.788 150.768 495.537 148.659 495.977 146.33C496.066 145.231 496.154 144.353 496.198 143.737C496.242 143.122 496.286 142.243 496.286 141.101C496.286 138.64 496.021 136.53 495.537 134.729C495.053 132.927 494.128 131.521 492.763 130.466C491.662 129.763 490.561 129.412 489.196 129.412C488.711 129.412 487.478 129.499 486.685 129.851C485.276 130.642 484.572 131.389 483.735 133.586C482.898 135.827 482.458 138.244 482.458 140.881L482.502 140.925ZM471.801 134.377C471.404 134.333 471.14 134.245 470.876 134.245C470.48 134.157 470.083 134.07 469.379 133.982C468.674 133.894 468.145 133.85 468.013 133.85C466.428 133.85 464.975 134.289 463.654 135.212C462.332 136.135 461.364 137.409 461.055 138.816V158.239H451.499V125.72H460.615L460.483 133.85C461.408 131.389 462.817 129.324 464.622 127.654C466.472 125.984 468.542 125.149 470.92 125.149H471.757V134.421L471.801 134.377ZM338.366 111.966C341.448 111.966 344.047 112.932 346.205 114.91C348.362 116.887 349.463 119.348 349.463 122.249C349.463 123.171 349.331 124.182 349.067 125.237C348.362 127.302 346.997 129.06 344.972 130.422C342.946 131.784 340.656 132.927 338.234 133.323C341.537 133.323 344.531 134.685 346.953 136.662C349.331 138.64 350.564 141.276 350.564 144.44C350.564 148.307 349.243 151.559 346.645 154.196C344.047 156.833 340.876 158.151 337.089 158.151H318.108V111.79L338.41 111.922L338.366 111.966ZM328.457 115.525V132.092H332.509C334.667 131.784 336.296 130.774 337.441 129.148C338.586 127.522 339.159 125.632 339.159 123.523C339.159 121.414 338.498 119.48 337.221 117.898C335.9 116.316 334.094 115.525 331.76 115.525H328.501H328.457ZM328.457 154.899H332.377C334.799 154.635 336.648 153.581 337.969 151.823C339.291 150.065 339.907 148 339.907 145.715C339.907 143.43 339.335 141.32 338.146 139.475C336.957 137.629 335.283 136.443 333.081 135.871H328.457V154.855V154.899ZM565.293 113.899L563.708 120.842H562.871C561.462 118.865 559.788 117.327 557.763 116.316C555.737 115.305 553.623 114.778 551.377 114.778C548.955 114.778 546.621 115.349 544.419 116.536C542.173 117.722 540.324 119.304 538.914 121.502C537.593 123.655 536.845 125.896 536.228 128.269C535.612 130.642 535.303 133.059 535.303 135.52C535.303 138.332 535.744 141.057 536.624 143.605C537.505 146.154 538.782 148.307 540.456 150.021C542.129 151.779 543.935 153.01 545.872 153.757C547.81 154.504 549.836 154.855 551.994 154.855C553.975 154.855 555.869 154.548 557.63 153.932C559.392 153.317 561.021 152.438 562.563 151.12L563.884 149.977H565.073L563.443 155.954C561.286 156.964 559.084 157.712 556.75 158.195C554.416 158.678 551.994 158.898 549.483 158.898C548.206 158.898 546.973 158.81 545.696 158.678L539.002 157.14C535.567 155.866 532.705 154.152 530.503 151.999C528.301 149.846 526.628 147.209 525.615 144.133C524.602 141.057 524.074 138.025 524.074 134.948C524.074 131.521 524.69 128.269 525.923 125.193C527.156 122.117 529.006 119.48 531.56 117.195C534.202 115.042 537.153 113.416 540.456 112.273C543.715 111.131 547.105 110.559 550.584 110.559C551.729 110.559 553.051 110.647 554.548 110.823C556.001 110.999 557.719 111.35 559.656 111.878C561.594 112.405 563.488 113.064 565.293 113.811V113.899ZM633.155 130.598C634.433 128.84 636.018 127.434 637.912 126.467C639.761 125.457 641.743 124.973 643.769 124.973C645.134 124.973 646.367 125.149 647.6 125.544C648.789 125.94 650.022 126.599 651.211 127.478C652.884 129.236 653.853 131.477 654.206 134.157V157.975H644.781V135.168C644.781 133.718 644.253 132.575 643.196 131.741C642.139 130.906 640.906 130.51 639.497 130.51C638.704 130.51 638 130.642 637.295 130.906C635.401 131.916 634.344 133.542 634.08 135.696V157.975H624.524V135.696C624.524 134.641 624.26 133.586 623.555 132.575C622.498 131.213 621.177 130.51 619.636 130.51C618.095 130.51 616.729 131.125 615.54 132.312C614.351 133.498 613.779 134.905 613.779 136.487V157.975H604.355V125.632H613.779V130.422C615.056 128.664 616.597 127.258 618.403 126.291C620.208 125.281 622.234 124.797 624.436 124.797C626.286 124.797 628.047 125.325 629.588 126.423C631.174 127.522 632.363 128.928 633.2 130.642L633.155 130.598ZM758.399 134.729V158.239H748.623V136.443C748.623 134.817 748.094 133.454 747.037 132.356C745.981 131.257 744.703 130.73 743.206 130.73C741.841 130.73 740.564 131.257 739.375 132.268C738.01 133.85 737.349 135.608 737.349 137.541V158.195H728.057V125.676H737.349V130.598C738.846 128.752 740.476 127.346 742.281 126.379C744.087 125.413 746.157 124.973 748.491 124.973C751.045 124.973 753.247 125.896 755.096 127.742C756.946 129.587 758.047 131.872 758.355 134.641L758.399 134.729ZM721.54 132.444V151.296C721.54 152.482 721.804 153.537 722.376 154.416C722.949 155.295 723.741 155.734 724.754 155.734C725.063 155.734 725.327 155.734 725.503 155.646L725.371 157.184C723.609 158.283 721.76 158.854 719.778 158.854C718.281 158.854 716.872 158.503 715.506 157.755C714.449 156.657 713.525 155.339 712.776 153.844C711.763 155.426 710.354 156.657 708.592 157.536C706.831 158.415 704.981 158.854 703 158.854C701.018 158.854 699.3 158.371 697.759 157.36C696.218 156.349 695.249 155.119 694.808 153.581C694.368 152.087 694.192 150.768 694.192 149.714C694.192 147.824 694.632 146.11 695.469 144.616C696.306 143.254 697.803 142.155 699.432 141.496L709.914 137.937C710.486 137.717 711.103 137.585 711.631 137.19C712.159 136.794 712.468 136.311 712.512 135.739C712.512 133.586 711.499 131.916 710.178 130.554C708.857 129.192 707.227 128.489 705.334 128.489C704.585 128.489 703.572 128.708 702.339 129.148C701.062 129.587 699.697 130.598 698.243 132.18C698.155 132.048 697.979 131.697 697.715 131.213C697.451 130.686 697.319 130.246 697.319 129.807C697.319 129.543 697.319 129.324 697.407 129.192C698.552 127.61 700.225 126.423 702.383 125.632C704.541 124.841 706.699 124.446 708.813 124.446C711.851 124.446 714.537 125.061 716.916 126.335C719.294 127.61 720.835 129.587 721.54 132.312V132.444ZM703.528 148.747C703.528 150.197 703.792 151.515 704.277 152.702C704.805 153.888 705.686 154.548 706.919 154.767C707.976 154.767 708.989 154.46 709.958 153.888C710.926 153.317 711.631 152.526 712.071 151.471L712.512 149.582V140.31C710.134 140.31 708.064 141.101 706.214 142.727C704.409 144.353 703.484 146.33 703.484 148.703L703.528 148.747ZM600.479 138.552C600.611 139.475 600.7 140.398 600.7 141.276C600.7 144.44 600.127 147.385 598.938 150.153C597.749 152.922 595.943 155.031 593.521 156.525C590.174 158.327 586.651 159.25 582.908 159.25C580.134 159.25 577.404 158.678 574.761 157.58C571.899 156.174 569.697 154.196 568.288 151.603C566.834 149.011 566.13 146.11 566.13 142.902C566.13 139.123 567.099 135.652 569.08 132.444C571.062 129.236 573.22 127.786 575.598 126.511C577.404 125.588 579.693 125.281 580.706 125.105C581.763 124.929 582.732 124.929 583.657 124.929C587.929 124.929 591.672 126.16 594.842 128.664C598.013 131.125 599.907 134.465 600.435 138.596L600.479 138.552ZM577.624 133.103C576.347 136.399 576.303 139.607 576.303 142.771C576.303 145.935 576.611 148.659 577.271 150.768C577.932 152.922 578.813 154.416 579.87 155.339C580.971 156.261 582.204 156.701 583.525 156.701C584.714 156.701 585.815 156.305 586.784 155.514C587.752 154.548 588.457 153.537 588.941 152.526C589.646 150.988 589.954 149.186 590.174 147.297C590.395 145.407 590.395 143.518 590.395 141.672C590.395 139.167 590.219 136.926 589.91 134.992C589.602 133.059 588.941 131.433 588.017 130.246C587.092 129.016 586.211 128.357 585.374 128.093C584.494 127.83 583.921 127.83 583.745 127.83C582.16 127.873 580.971 128.445 579.87 129.587C578.637 130.73 577.976 131.916 577.58 133.147L577.624 133.103ZM690.845 136.003C691.285 137.937 691.462 140.002 691.462 142.111C691.462 145.715 690.757 148.967 689.392 151.779C688.027 154.592 685.781 156.701 682.742 158.107C681.069 158.722 679.263 159.03 677.37 159.03C675.872 159.03 674.331 158.766 672.702 158.283C671.777 157.799 670.94 157.316 670.147 156.701C669.355 156.13 668.694 155.426 668.166 154.592V171.993H658.874V125.5H668.166V129.763C669.09 128.225 670.279 126.995 671.689 126.116C673.098 125.237 674.639 124.885 676.313 124.753C676.841 124.753 677.458 124.709 678.03 124.753C681.113 124.929 683.799 125.852 686.177 128.005C688.555 130.159 690.141 132.839 690.933 136.091L690.845 136.003ZM668.474 136.091C668.342 137.146 668.21 138.42 668.078 139.87C667.945 141.32 667.901 142.375 667.901 143.034C667.901 145.187 668.166 147.165 668.65 149.055C669.178 150.9 670.015 152.482 671.16 153.801C672.305 154.723 673.538 155.207 674.771 155.207C676.004 155.207 677.193 154.723 678.25 153.801C679.351 152.306 680.188 150.593 680.716 148.659C681.245 146.726 681.509 144.748 681.509 142.639C681.509 141.32 681.509 140.178 681.377 139.123C681.245 138.069 681.113 136.794 680.716 135.3C680.408 133.806 679.659 132.444 678.514 131.125C677.37 129.851 676.048 129.28 674.551 129.412C672.922 129.412 671.557 130.115 670.5 131.477C669.443 132.839 668.738 134.421 668.386 136.135L668.474 136.091ZM790.811 125.896L770.95 172.389H765.71L772.668 158.766L759.192 125.896H769.497L777.512 146.857L785.835 125.896H790.767H790.811Z" fill="white"/>
</svg>
